<svg width="1804" height="1862" viewBox="0 0 1804 1862" fill="none" xmlns="http://www.w3.org/2000/svg">
<path d="M1218 431V554H221V431H1218Z" fill="black"/>
<path d="M1066 541.381L1022.94 641.69C966.353 773.624 894.173 898.352 807.984 1013.19L807.413 1013.92L806.842 1014.73C692.955 1156.99 563.644 1286.2 421.286 1400L343 1302.22C478.136 1194.19 600.876 1071.54 708.985 936.507C788.681 830.067 855.473 714.499 907.879 592.309L950.855 492L1066 541.381Z" fill="black"/>
<path d="M767.185 935.901L1012 1181.44L923.701 1270L668.885 1014.43L665.145 1008.4L457 674.379L562.861 608L767.185 935.901Z" fill="black"/>
<path d="M1606 1618.55L1491.07 1669L1404.23 1469.92H1107.77L1020.93 1669L906 1618.55L1256 816L1606 1618.55ZM1162.62 1344.13H1349.38L1256 1129.9L1162.62 1344.13Z" fill="black"/>
<path d="M1704.17 1103.49V1012.76C1704.17 963.794 1700.18 914.877 1692.22 866.58L1687.43 837.624C1672.46 746.772 1640.69 659.537 1593.86 580.557C1563.34 529.093 1526.7 481.59 1484.76 439.151L1395.91 349.239C1363.84 316.784 1328.62 287.585 1290.88 262.125C1251.21 235.368 1208.89 212.833 1164.63 194.917L1149.92 188.912L1174.47 238.516L1178.05 248.14C1184.04 270.836 1173.69 295.465 1152.11 306.381C1130.53 317.303 1104.84 310.886 1090.49 292.397L1085.05 283.759L974 58.9395L1200.89 1.52121C1227.65 -5.24873 1254.76 11.2122 1261.45 38.2919C1268.14 65.3717 1251.87 92.8066 1225.11 99.5765L1208.12 103.854C1256.49 123.931 1302.82 148.705 1346.32 178.054C1389.53 207.205 1429.83 240.594 1466.55 277.754L1555.41 367.666C1603.13 415.954 1644.82 470.011 1679.54 528.568C1732.81 618.409 1768.93 717.581 1785.95 820.925L1790.75 849.963C1799.61 903.752 1804 958.226 1804 1012.76V1103.49C1804 1131.4 1781.67 1154 1754.09 1154C1726.5 1154 1704.17 1131.4 1704.17 1103.49Z" fill="#1E1D1D"/>
<path d="M99.842 811.969V896.689C99.844 943.751 104.189 990.708 112.688 1036.99L116.266 1056.85C132.751 1146.62 167.249 1232.13 217.571 1308.24C248.696 1355.32 285.552 1398.34 327.332 1436.26L423.353 1523.42C458.747 1555.54 497.187 1584.14 538.074 1608.87C579.588 1633.99 623.453 1654.98 669.055 1671.54L691.333 1679.68L667.348 1636.14L663.364 1626.86C656.433 1604.65 665.795 1579.86 686.942 1568.18C711.1 1554.85 741.511 1563.7 754.832 1587.88L875 1806.07L633.932 1860.76C607.036 1866.84 580.274 1849.99 574.173 1823.08C568.074 1796.14 584.992 1769.36 611.898 1763.26L622.793 1760.82C575.449 1742.79 529.729 1720.73 486.364 1694.49C439.981 1666.43 396.429 1633.92 356.277 1597.48L260.256 1510.4C212.297 1466.88 169.96 1417.46 134.234 1363.42C76.4884 1276.07 36.968 1177.93 18.0496 1074.92L14.3909 1055.06C4.7985 1002.82 0.00193962 949.809 0 896.689V811.969C0 784.354 22.3324 762 49.921 762C77.5096 762 99.842 784.354 99.842 811.969Z" fill="#1E1D1D"/>
<path d="M799 308V469H632V308H799Z" fill="black"/>
</svg>
