<svg width="2007" height="1166" viewBox="0 0 2007 1166" fill="none" xmlns="http://www.w3.org/2000/svg">
<path fill-rule="evenodd" clip-rule="evenodd" d="M1 1165L624.118 257.546L738.569 393.24L1001.38 1L1306.58 412.322L1414.67 323.273L2006 1162.88H1024.69L1037.41 1042.03L1050.13 1035.67L1064.96 1039.91L1143.38 1090.79L1200.61 1111.99L1264.19 1122.6H1304.46L1338.37 1111.99L1361.69 1097.15L1378.64 1078.07L1387.12 1063.23L1389.24 1046.27L1387.12 1029.31L1378.64 1014.46L1368.05 999.623L1355.33 989.022L1344.73 980.541L1332.01 972.06L1319.3 965.699L1304.46 959.339L1287.51 952.978L1270.55 946.617L1253.6 940.257L1232.4 933.896L1213.33 927.535L1190.01 919.055L1168.82 910.574L1151.86 902.093L1137.03 895.732L1120.07 887.251L1103.11 878.77L1084.04 866.049L1064.96 851.208L1035.29 825.765L1022.58 842.727L1014.1 857.568L1007.74 870.29L1001.38 883.011L995.022 895.732L929.319 1039.91L677.105 698.552L660.149 679.47L645.313 664.628L632.596 654.027L624.118 647.667L613.521 645.546L607.163 649.787L600.804 662.508L598.685 666.749V1046.27L602.924 1058.99L611.402 1075.95L619.88 1088.67L630.477 1097.15L734.33 1160.76L1 1165ZM975.947 151.536L774.599 435.645L988.664 713.393L995.022 702.792L999.261 628.585L1005.62 603.142L1011.98 579.82L1020.46 564.978L1026.81 554.377L1035.29 541.656L1043.77 531.055L1052.25 522.574L1064.96 509.852L1073.44 503.492L1084.04 497.131L1096.76 490.77L1103.11 486.53L1098.88 473.809L1090.4 450.486L1075.56 412.322L1031.05 304.191L1009.86 249.066L997.142 213.022L986.544 183.339L975.947 151.536ZM1187.89 690.071V654.027L1192.13 641.306L1198.49 628.585L1204.85 620.104L1213.33 609.503L1219.68 603.142L1230.28 592.541L1245.12 581.94L1262.07 575.579L1272.67 571.339L1285.39 567.098L1298.1 564.978L1308.7 562.858H1325.66H1342.61L1359.57 564.978L1380.76 569.219L1399.84 573.459L1418.91 579.82L1435.87 588.301L1459.18 601.022L1478.26 622.224L1486.73 632.825L1497.33 647.667L1507.93 664.628L1522.77 694.311L1537.6 723.995L1550.32 751.557L1560.92 777L1567.27 791.841L1573.63 804.563L1579.99 819.404L1588.47 840.607L1594.83 859.688L1601.19 876.65L1605.42 891.492L1607.54 908.454V935.14L1605.42 946.617L1603.3 952.978L1601.19 959.339L1599.07 965.699L1596.95 972.06L1592.71 982.661L1586.35 986.902L1579.99 976.301L1573.63 963.579L1569.39 952.978L1563.03 938.137L1558.8 929.656L1552.44 919.055L1546.08 908.454L1537.6 899.973L1529.12 891.492L1520.65 883.011L1512.17 876.65L1501.57 868.169L1488.85 857.568L1471.9 844.847L1454.94 834.246L1437.99 825.765L1418.91 817.284L1399.84 808.803L1385 802.443L1372.28 798.202L1353.21 791.841L1332.01 785.481L1312.94 779.12L1293.86 772.76L1272.67 766.399L1253.6 757.918L1236.64 747.317L1221.8 738.836L1209.09 728.235L1200.61 717.634L1196.37 709.153L1190.01 698.552L1187.89 690.071Z" fill="#030303" stroke="black"/>
</svg>
